# xmcd
#
# Track frame offsets: 
#        150
#        12409
#        27725
#        42402
#        56127
#        73645
#        87400
#        101896
#        119324
#        136376
#        149551
#
# Disc length: 2213 seconds
#
# Revision: 0
# Processed by: cddbd v1.5.2PL0 Copyright (c) Steve Scherf et al.
# Submitted via: ExactAudioCopy v1.0b1
#
DISCID=ab08a30b
DTITLE=The Jane Dear Girls - The Jane Dear Girls
DYEAR=2011
DGENRE=Country
TTITLE0=Wildflower
TTITLE1=Shotgun Girl
TTITLE2=Merry Go Round
TTITLE3=Sugar
TTITLE4=Saturdays in September
TTITLE5=Sing Along
TTITLE6=Lucky You
TTITLE7=Pretender
TTITLE8=Never Gonna Let You Go
TTITLE9=Free Ride
TTITLE10=Every Day's a Holiday
EXTD=
EXTT0=
EXTT1=
EXTT2=
EXTT3=
EXTT4=
EXTT5=
EXTT6=
EXTT7=
EXTT8=
EXTT9=
EXTT10=
PLAYORDER=
